PathFileType	4	(X/Y/Z)
DataRate	CameraRate	NumFrames	NumMarkers	Units	OrigDataRate	OrigDataStartFrame	OrigNumFrames	
	120.0	120.0	8	39	mm	120.0	66	104
Frame#	Time	midhip	hip_r	hip_l	knee_r	knee_l	ankle_r	ankle_l	midasis	asis_r	asis_l	psis_r	psis_l	epicondLat_r	epicondLat_l	epicondMed_r	epicondMed_l	malleolusLat_r	malleolusLat_l	malleolusMedv_r	malleolusMedv_l	heel_r	heel_l	sternalnotch	xyphoidprocess	neck	subclavicle_r	subclavicle_l	toe_r	toe_l	thighwand_r	thighwand_l	upperleg1_r	upperleg1_l	upperleg2_r	upperleg2_l	shankwand_r	shankwand_l	lowerleg1_r	lowerleg1_l
	X1	Y1	Z1	X2	Y2	Z2	X3	Y3	Z3	X4	Y4	Z4	X5	Y5	Z5	X6	Y6	Z6	X7	Y7	Z7	X8	Y8	Z8	X9	Y9	Z9	X10	Y10	Z10	X11	Y11	Z11	X12	Y12	Z12	X13	Y13	Z13	X14	Y14	Z14	X15	Y15	Z15	X16	Y16	Z16	X17	Y17	Z17	X18	Y18	Z18	X19	Y19	Z19	X20	Y20	Z20	X21	Y21	Z21	X22	Y22	Z22	X23	Y23	Z23	X24	Y24	Z24	X25	Y25	Z25	X26	Y26	Z26	X27	Y27	Z27	X28	Y28	Z28	X29	Y29	Z29	X30	Y30	Z30	X31	Y31	Z31	X32	Y32	Z32	X33	Y33	Z33	X34	Y34	Z34	X35	Y35	Z35	X36	Y36	Z36	X37	Y37	Z37	X38	Y38	Z38	X39	Y39	Z39

	66	0.55000	1477.895	905.026	-248.571	1465.866	879.778	-178.847	1473.506	883.320	-329.041	1443.101	470.414	-135.839	1433.243	460.712	-353.500	1406.868	69.363	-130.258	1383.881	71.127	-363.413	1565.138	960.567	-247.225	1559.084	957.761	-128.210	1571.193	963.374	-366.241	1378.669	1017.586	-223.697	1388.413	1015.647	-308.843	1452.151	476.166	-76.297	1441.320	463.380	-412.894	1427.341	477.656	-186.225	1427.641	467.349	-302.776	1391.327	71.310	-91.287	1365.122	74.428	-399.719	1415.785	82.995	-157.900	1390.750	83.357	-338.417	1342.807	42.535	-144.018	1317.451	43.014	-352.077	1484.636	1369.482	-236.925	1566.938	1206.013	-247.604	1372.068	1436.048	-241.156	1494.642	1358.312	-184.248	1509.198	1364.869	-291.731	1525.849	39.554	-99.115	1500.574	41.112	-401.711	1505.612	591.454	-10.744	1595.813	552.863	-341.130	1521.723	652.380	-83.774	1536.598	618.166	-383.424	1513.242	563.835	-99.591	1510.970	536.064	-385.995	1418.130	204.998	-6.223	1406.740	211.555	-479.782	1406.546	172.198	-79.336	1385.964	173.995	-410.875
	67	0.55833	1477.978	905.088	-248.604	1465.811	879.775	-178.930	1473.516	883.314	-329.120	1443.043	470.408	-135.849	1433.231	460.720	-353.490	1406.872	69.330	-130.263	1383.861	71.135	-363.420	1565.112	960.564	-247.266	1559.008	957.759	-128.265	1571.217	963.368	-366.268	1378.631	1017.583	-223.696	1388.477	1015.622	-309.119	1452.114	476.169	-76.311	1441.319	463.374	-412.883	1427.372	477.598	-186.178	1427.284	467.925	-302.507	1391.345	71.273	-91.287	1365.109	74.437	-399.731	1415.776	83.004	-157.917	1390.626	83.016	-338.417	1342.808	42.541	-144.031	1317.450	43.021	-352.081	1484.652	1369.472	-236.893	1567.042	1206.044	-247.522	1371.907	1436.076	-241.271	1494.642	1358.312	-184.248	1509.238	1364.867	-291.649	1525.825	39.571	-99.094	1500.575	41.095	-401.697	1505.558	591.444	-10.807	1595.845	552.874	-341.130	1521.739	652.425	-83.861	1536.700	617.985	-383.797	1513.242	563.835	-99.591	1510.870	536.078	-386.002	1418.106	205.016	-6.222	1406.780	211.554	-479.798	1406.407	172.130	-79.090	1385.846	173.830	-410.969
	68	0.56667	1477.987	905.096	-248.645	1465.751	879.778	-179.002	1473.513	883.320	-329.190	1442.992	470.398	-135.842	1433.257	460.719	-353.509	1406.874	69.306	-130.262	1383.844	71.143	-363.429	1565.081	960.564	-247.300	1558.932	957.758	-128.316	1571.230	963.370	-366.284	1378.596	1017.587	-223.685	1388.534	1015.615	-309.360	1452.084	476.170	-76.308	1441.351	463.366	-412.901	1427.320	477.568	-186.137	1427.672	467.516	-302.639	1391.361	71.245	-91.281	1365.097	74.445	-399.741	1415.772	83.015	-157.909	1390.545	82.794	-338.362	1342.810	42.549	-144.045	1317.456	43.012	-352.089	1484.698	1369.508	-236.937	1567.176	1206.128	-247.633	1371.822	1436.147	-241.546	1494.658	1358.313	-184.350	1509.325	1364.956	-291.620	1525.785	39.573	-99.098	1500.568	41.086	-401.687	1505.519	591.428	-10.861	1595.870	552.886	-341.140	1521.814	652.388	-84.027	1536.611	618.231	-383.569	1513.243	563.888	-99.619	1510.970	536.064	-385.995	1418.076	205.031	-6.214	1406.825	211.553	-479.821	1406.421	172.132	-78.958	1385.768	173.738	-410.995
	69	0.57500	1477.892	905.033	-248.710	1465.690	879.790	-179.064	1473.501	883.337	-329.249	1442.949	470.388	-135.825	1433.329	460.710	-353.560	1406.875	69.292	-130.256	1383.833	71.153	-363.439	1565.050	960.570	-247.326	1558.863	957.760	-128.360	1571.237	963.380	-366.292	1378.564	1017.600	-223.674	1388.573	1015.633	-309.564	1452.064	476.169	-76.295	1441.422	463.358	-412.953	1427.288	477.667	-186.258	1428.210	466.886	-302.931	1391.376	71.228	-91.268	1365.083	74.456	-399.751	1415.805	83.015	-157.892	1390.559	82.802	-338.316	1342.813	42.559	-144.058	1317.464	42.988	-352.097	1484.765	1369.555	-237.012	1567.337	1206.227	-247.775	1371.969	1436.085	-241.714	1494.673	1358.313	-184.452	1509.455	1365.068	-291.641	1525.732	39.560	-99.121	1500.555	41.089	-401.682	1505.492	591.406	-10.909	1595.882	552.898	-341.156	1521.879	652.292	-84.029	1536.501	618.716	-383.104	1513.245	563.932	-99.641	1511.070	536.050	-385.988	1418.039	205.040	-6.205	1406.875	211.553	-479.848	1406.401	172.147	-78.936	1385.960	173.780	-410.954
	70	0.58333	1477.951	905.122	-248.783	1465.630	879.813	-179.116	1473.483	883.363	-329.299	1442.915	470.377	-135.802	1433.442	460.694	-353.640	1406.875	69.287	-130.246	1383.826	71.164	-363.449	1565.020	960.581	-247.349	1558.800	957.770	-128.398	1571.240	963.393	-366.299	1378.537	1017.626	-223.670	1388.591	1015.677	-309.726	1452.053	476.168	-76.277	1441.525	463.349	-413.034	1427.286	477.743	-186.353	1428.391	466.737	-303.026	1391.392	71.218	-91.252	1365.070	74.467	-399.758	1415.863	82.973	-157.866	1390.623	82.962	-338.331	1342.817	42.569	-144.072	1317.472	42.953	-352.101	1484.749	1369.593	-237.019	1567.371	1206.289	-247.762	1372.098	1435.998	-241.800	1494.722	1358.393	-184.437	1509.376	1365.077	-291.703	1525.673	39.534	-99.157	1500.537	41.105	-401.685	1505.476	591.382	-10.951	1595.879	552.909	-341.178	1521.900	652.255	-83.983	1536.482	619.016	-382.929	1513.244	563.941	-99.648	1511.070	536.050	-385.988	1417.994	205.043	-6.202	1406.925	211.555	-479.879	1406.179	172.167	-78.894	1386.168	173.919	-410.837
	71	0.59167	1478.123	905.322	-248.867	1465.573	879.849	-179.159	1473.461	883.396	-329.339	1442.890	470.367	-135.781	1433.571	460.671	-353.736	1406.875	69.286	-130.235	1383.823	71.175	-363.458	1564.994	960.598	-247.370	1558.747	957.789	-128.430	1571.240	963.406	-366.309	1378.520	1017.660	-223.676	1388.589	1015.740	-309.845	1452.051	476.165	-76.260	1441.642	463.337	-413.131	1427.287	477.757	-186.365	1428.432	466.790	-302.980	1391.406	71.214	-91.235	1365.059	74.478	-399.762	1415.889	82.927	-157.854	1390.652	83.206	-338.321	1342.822	42.577	-144.084	1317.478	42.914	-352.101	1484.621	1369.614	-236.998	1567.153	1206.250	-247.513	1372.120	1435.992	-241.865	1494.788	1358.586	-184.266	1509.041	1364.910	-291.919	1525.620	39.499	-99.198	1500.519	41.130	-401.696	1505.469	591.360	-10.992	1595.857	552.922	-341.205	1521.901	652.265	-83.989	1536.480	619.095	-382.971	1513.242	563.951	-99.654	1511.070	536.050	-385.988	1417.944	205.041	-6.210	1406.972	211.558	-479.909	1406.122	172.214	-78.963	1386.165	173.971	-410.690
	72	0.60000	1478.247	905.479	-248.971	1465.526	879.896	-179.191	1473.440	883.427	-329.371	1442.873	470.357	-135.767	1433.684	460.639	-353.832	1406.875	69.286	-130.226	1383.817	71.186	-363.461	1564.972	960.620	-247.393	1558.706	957.824	-128.461	1571.239	963.417	-366.324	1378.518	1017.696	-223.690	1388.572	1015.810	-309.924	1452.056	476.160	-76.251	1441.749	463.317	-413.227	1427.412	477.709	-186.320	1428.608	466.807	-303.003	1391.420	71.212	-91.220	1365.048	74.486	-399.763	1415.937	82.893	-157.849	1390.802	83.488	-338.314	1342.828	42.583	-144.094	1317.481	42.881	-352.099	1484.546	1369.678	-236.950	1567.046	1206.288	-247.310	1372.156	1436.009	-241.865	1494.775	1358.733	-183.971	1508.899	1364.884	-292.150	1525.586	39.461	-99.237	1500.502	41.158	-401.711	1505.472	591.342	-11.036	1595.817	552.938	-341.237	1521.901	652.265	-83.989	1536.509	619.195	-383.034	1513.297	564.020	-99.606	1511.206	536.116	-386.011	1417.896	205.042	-6.227	1407.012	211.558	-479.934	1406.370	172.244	-79.241	1386.150	173.952	-410.631
	73	0.60833	1478.230	905.501	-249.086	1465.498	879.949	-179.213	1473.426	883.451	-329.392	1442.867	470.348	-135.769	1433.748	460.597	-353.910	1406.877	69.284	-130.220	1383.803	71.195	-363.457	1564.959	960.651	-247.420	1558.681	957.878	-128.496	1571.237	963.424	-366.344	1378.531	1017.726	-223.708	1388.546	1015.870	-309.965	1452.068	476.152	-76.255	1441.821	463.283	-413.303	1427.511	477.708	-186.306	1428.939	466.646	-303.223	1391.433	71.210	-91.209	1365.038	74.492	-399.761	1415.934	82.874	-157.847	1390.942	83.625	-338.348	1342.833	42.588	-144.101	1317.484	42.865	-352.099	1484.577	1369.768	-236.937	1567.166	1206.429	-247.385	1372.193	1436.026	-241.851	1494.744	1358.766	-183.832	1509.003	1365.050	-292.248	1525.583	39.428	-99.268	1500.489	41.182	-401.727	1505.485	591.331	-11.087	1595.766	552.956	-341.274	1521.901	652.265	-83.989	1536.545	619.274	-383.102	1513.347	564.120	-99.576	1511.498	536.207	-386.103	1417.856	205.051	-6.249	1407.043	211.554	-479.946	1406.512	172.257	-79.317	1386.186	173.946	-410.690
